<svg width="109" height="37" viewBox="0 0 109 37" fill="none" xmlns="http://www.w3.org/2000/svg">
<path d="M49.7213 19.6938C49.7213 20.5966 49.0582 21.5207 47.2901 21.5207C45.9366 21.5207 45.2473 20.4847 44.1676 19.6938L44.128 19.6595C43.9793 19.5302 43.7713 19.5088 43.6004 19.6069C43.0764 19.9079 42.0865 20.4819 41.4977 20.8236C41.2448 20.9703 41.1764 21.3054 41.3597 21.5332C42.9521 23.5114 44.8702 24.8781 47.3453 24.8781C51.1579 24.8781 53.909 22.2675 53.909 19.644C53.909 17.1347 51.7658 15.1598 48.294 14.8565C46.0192 14.6577 45.7429 13.8183 45.7429 13.1271C45.7429 12.4359 46.4612 11.6459 47.4558 11.6459C48.5137 11.6459 49.307 12.326 49.5893 13.1439C49.6368 13.2807 49.7687 13.3797 49.9283 13.3797H53.3814C53.6043 13.3797 53.7771 13.1958 53.7296 13.0013C53.0807 10.3789 50.4238 8.38721 47.3453 8.38721C44.2668 8.38721 41.9689 10.9822 41.9689 13.2534C41.9689 15.7178 43.2756 17.3085 46.7375 17.7683C49.0029 18.004 49.7213 18.8051 49.7213 19.6938Z" fill="#5341C4"/>
<path fill-rule="evenodd" clip-rule="evenodd" d="M67.5603 19.0786C67.6639 18.9049 67.8008 18.9575 68.0016 19.087L70.2098 20.5403C70.3312 20.6625 70.3205 20.8228 70.2206 20.9906C69.1342 22.8139 66.7253 24.7029 63.6858 24.856C58.3526 25.0092 55.0342 20.8005 55.0342 16.6876C55.0342 12.2269 58.5568 8.41699 63.37 8.41699C67.8155 8.41699 71.4648 12.1834 71.4648 16.4383C71.4648 16.5287 71.4668 16.624 71.4688 16.7218C71.4753 17.0308 71.4823 17.3648 71.4284 17.6517C71.3996 17.8054 71.2673 17.9168 71.1122 17.9168H59.304C59.0876 17.9168 58.9397 18.1262 58.9962 18.3356C59.5175 19.7855 61.0961 21.3333 63.3604 21.3333C65.4843 21.2572 67.0432 19.9456 67.5603 19.0786ZM67.1752 15.0775H59.439C59.1872 15.0775 59.0228 14.8498 59.118 14.644C59.8265 13.1288 61.492 12.0122 63.3801 12.0122C65.1317 12.0122 66.9051 13.1667 67.5027 14.659C67.5836 14.8613 67.4205 15.0775 67.1752 15.0775Z" fill="#5341C4"/>
<path d="M80.1232 19.0732C80.1245 20.5326 81.0272 21.6001 82.3615 21.6001C83.0318 21.5653 83.3223 21.4933 83.6425 21.4213C83.8302 21.379 84.059 21.4746 84.059 21.8669L84.0881 24.1249C84.0881 24.2485 84.0257 24.3657 83.9161 24.4243C83.2243 24.7963 82.2509 25.0066 81.252 25.0066C77.9315 25.0066 75.8601 23.1005 75.8601 19.3357L75.9669 12.6264C75.9669 12.4378 75.814 12.2862 75.6267 12.2862H72.9691C72.7805 12.2862 72.6289 12.1333 72.6289 11.946V8.92392C72.6289 8.73536 72.7818 8.58374 72.9691 8.58374H75.6267C75.8153 8.58374 75.9669 8.43085 75.9669 8.24356V6.25473C75.9669 6.09165 75.9057 5.79352 76.2421 5.53871L79.8222 4.36125C80.0465 4.24912 80.2287 4.48102 80.2287 4.69506V8.24356C80.2287 8.43213 80.3815 8.58374 80.5688 8.58374H83.6687C83.8572 8.58374 84.0088 8.73663 84.0088 8.92392V11.946C84.0088 12.1346 83.8559 12.2862 83.6687 12.2862H80.5714C80.3828 12.2862 80.2312 12.4391 80.2312 12.6264L80.1245 19.0732H80.1232Z" fill="#5341C4"/>
<path d="M90.8872 24.7556L88.297 31.3604L90.1337 31.3413C91.7061 31.3249 93.1045 30.338 93.6468 28.8619L100.929 9.03991C101.011 8.81822 100.847 8.58252 100.61 8.58252H96.9098C96.7645 8.58252 96.6346 8.67553 96.5874 8.81313L93.3653 18.2871C93.2608 18.5955 92.8238 18.5955 92.7206 18.2859L89.5545 8.81568C89.5087 8.6768 89.3787 8.58379 89.2322 8.58379H85.5336C85.2966 8.58379 85.1322 8.8195 85.2138 9.04119L90.8898 24.5136C90.9191 24.5925 90.9178 24.6779 90.8872 24.7556Z" fill="#5341C4"/>
<path fill-rule="evenodd" clip-rule="evenodd" d="M24.744 34.4005C22.5419 35.3981 20.0967 35.9536 17.5217 35.9536C7.84569 35.9536 0.00170898 28.1096 0.00170898 18.4336C0.00170898 8.75756 7.84569 0.913574 17.5217 0.913574C19.6853 0.913574 21.7573 1.30575 23.6704 2.02288L23.6697 2.02303L24.3571 2.32401C24.9245 2.57252 25.1771 3.23876 24.917 3.80101C24.6924 4.28645 24.1597 4.53257 23.6575 4.41249C21.7792 3.58929 19.7037 3.13249 17.5215 3.13249C9.07093 3.13249 2.22038 9.98304 2.22038 18.4336C2.22038 26.8842 9.07093 33.7347 17.5215 33.7347C19.8169 33.7347 21.9943 33.2293 23.9483 32.3237C24.4522 32.1499 25.0171 32.3593 25.2817 32.8344C25.5943 33.3959 25.3673 34.1047 24.7867 34.3802L24.744 34.4005ZM29.9912 30.7406C33.1141 27.5768 35.0418 23.2303 35.0418 18.4336C35.0418 13.9793 33.3795 9.91328 30.6415 6.82196L30.1495 6.32129C29.7173 5.88149 29.0073 5.88539 28.58 6.32991C28.1831 6.74269 28.1716 7.39157 28.5535 7.81822L28.7852 8.07712C31.292 10.8021 32.8226 14.4391 32.8226 18.4336C32.8226 22.5316 31.2116 26.2534 28.5884 29L28.3994 29.2327C28.0483 29.6649 28.0772 30.2928 28.4648 30.6926C28.8801 31.1208 29.5582 31.1367 29.9912 30.7406Z" fill="#B8AEF3"/>
<path fill-rule="evenodd" clip-rule="evenodd" d="M30.327 18.4335C30.327 25.5055 24.5941 31.2384 17.5222 31.2384C10.4502 31.2384 4.71729 25.5055 4.71729 18.4335C4.71729 16.5657 5.1172 14.7913 5.83609 13.1912C6.05551 12.7742 6.53708 12.5653 6.99284 12.6925L7.04164 12.7061C7.65156 12.8764 7.97876 13.5383 7.74359 14.1263L7.68664 14.2686C7.14404 15.5484 6.84393 16.9559 6.84393 18.4335C6.84393 24.331 11.6248 29.1119 17.5224 29.1119C23.4199 29.1119 28.2008 24.331 28.2008 18.4335C28.2008 12.536 23.4199 7.75508 17.5224 7.75508C15.068 7.75508 12.807 8.58313 11.0035 9.97511L11.0039 9.97399L10.9515 10.0155C10.9167 10.0427 10.8821 10.0701 10.8477 10.0977L10.4835 10.386C10.1318 10.6645 9.64128 10.6866 9.2659 10.4409C8.69854 10.0695 8.63128 9.26384 9.12922 8.80356L9.56669 8.39919C11.7515 6.66469 14.5158 5.62866 17.5222 5.62866C24.5941 5.62866 30.327 11.3616 30.327 18.4335Z" fill="#9489DA"/>
<path d="M17.4255 26.3634C21.8591 26.3634 25.4533 22.7693 25.4533 18.3356C25.4533 13.902 21.8591 10.3079 17.4255 10.3079C12.9919 10.3079 9.39771 13.902 9.39771 18.3356C9.39771 22.7693 12.9919 26.3634 17.4255 26.3634Z" fill="#5341C4"/>
</svg>
